# File created by Blade
# Date/Time:  Wed Apr 08 17:12:22 2015
#---------------------------------------------------------
:version 1.10
:name HOM
:units
  mass 1.0
  length 1.000000
  angle deg
:documentation
     Acclaim Skeleton File
:root
   axis xyz
   order TX TY TZ RX RY RZ
   position 0.000000 0.000000 0.000000
   orientation 0 0 0
:bonedata
   begin
      id 1
      name Spine_dum
      direction 0.000000 1.000000 0.000000
      length 5.893853
      axis 0.0 0.0 0.0 xyz
   end
   begin
      id 2
      name LeftUpLeg_dum
      direction 1.000000 0.000000 0.000000
      length 3.697939
      axis 0.0 0.0 0.0 xyz
   end
   begin
      id 3
      name RightUpLeg_dum
      direction -1.000000 0.000000 0.000000
      length 3.697939
      axis 0.0 0.0 0.0 xyz
   end
   begin
      id 4
      name Spine
      direction 0.000000 1.000000 0.000000
      length 0.000000
      axis 0.0 0.0 0.0 xyz
      dof rx ry rz
   end
   begin
      id 5
      name Spine_dum1
      direction 0.000000 1.000000 0.000000
      length 16.447146
      axis 0.0 0.0 0.0 xyz
   end
   begin
      id 6
      name Spine_dum2
      direction 0.000000 1.000000 0.000000
      length 10.900383
      axis 0.0 0.0 0.0 xyz
   end
   begin
      id 7
      name Spine_dum3
      direction 0.000000 1.000000 0.000000
      length 10.900383
      axis 0.0 0.0 0.0 xyz
   end
   begin
      id 8
      name Head
      direction 0.000000 1.000000 0.000000
      length 4.527550
      axis 0.0 0.0 0.0 xyz
      dof rx ry rz
   end
   begin
      id 9
      name LeftShoulder
      direction 1.000000 0.000000 0.000000
      length 8.219464
      axis 0.0 0.0 -90.0 xyz
      dof rx ry rz
   end
   begin
      id 10
      name LeftArm
      direction 1.000000 0.000000 0.000000
      length 11.094937
      axis 0.0 0.0 -90.0 xyz
      dof rx ry rz
   end
   begin
      id 11
      name LeftForeArm
      direction 1.000000 0.000000 0.000000
      length 9.103875
      axis 0.0 0.0 -90.0 xyz
      dof ry rz rx
   end
   begin
      id 12
      name LeftHand
      direction 0.000000 0.000000 0.000000
      length 0.000000
      axis 0.0 0.0 -90.0 xyz
      dof rx ry rz
   end
   begin
      id 13
      name LeftHand_dum1
      direction 0.000000 0.000000 0.000000
      length 0.000000
      axis 0.0 0.0 -90.0 xyz
   end
   begin
      id 14
      name LeftHand_dum2
      direction 1.000000 0.000000 0.000000
      length 3.937000
      axis 0.0 0.0 -90.0 xyz
   end
   begin
      id 15
      name LeftHandThumb1
      direction 0.000000 0.000000 1.000000
      length 3.937000
      axis 0.0 0.0 -90.0 xyz
      dof rx rz ry
   end
   begin
      id 16
      name RightShoulder
      direction -1.000000 0.000000 0.000000
      length 8.219464
      axis 0.0 0.0 90.0 xyz
      dof rx ry rz
   end
   begin
      id 17
      name RightArm
      direction -1.000000 0.000000 0.000000
      length 11.094937
      axis 0.0 0.0 90.0 xyz
      dof rx ry rz
   end
   begin
      id 18
      name RightForeArm
      direction -1.000000 0.000000 0.000000
      length 9.103875
      axis 0.0 0.0 90.0 xyz
      dof ry rz rx
   end
   begin
      id 19
      name RightHand
      direction 0.000000 0.000000 0.000000
      length 0.000000
      axis 0.0 0.0 90.0 xyz
      dof rx ry rz
   end
   begin
      id 20
      name RightHand_dum1
      direction 0.000000 0.000000 0.000000
      length 0.000000
      axis 0.0 0.0 90.0 xyz
   end
   begin
      id 21
      name RightHand_dum2
      direction -1.000000 0.000000 0.000000
      length 3.937000
      axis 0.0 0.0 90.0 xyz
   end
   begin
      id 22
      name RightHandThumb1
      direction 0.000000 0.000000 1.000000
      length 3.937000
      axis 0.0 0.0 90.0 xyz
      dof rx rz ry
   end
   begin
      id 23
      name LeftUpLeg
      direction 0.000000 -1.000000 0.000000
      length 16.181467
      axis 0.0 0.0 0.0 xyz
      dof rx ry rz
   end
   begin
      id 24
      name LeftLeg
      direction 0.000000 -1.000000 0.000000
      length 16.501392
      axis 0.0 0.0 0.0 xyz
      dof rx ry rz
   end
   begin
      id 25
      name LeftFoot
      direction 0.000000 -0.258819 0.965926
      length 6.408245
      axis 15.0 0.0 0.0 xyz
      dof rx ry rz
   end
   begin
      id 26
      name LeftToeBase
      direction 0.000000 0.000000 1.000000
      length 2.952750
      axis 0.0 0.0 0.0 xyz
      dof rx ry rz
   end
   begin
      id 27
      name RightUpLeg
      direction 0.000000 -1.000000 0.000000
      length 16.181467
      axis 0.0 0.0 0.0 xyz
      dof rx ry rz
   end
   begin
      id 28
      name RightLeg
      direction 0.000000 -1.000000 0.000000
      length 16.501392
      axis 0.0 0.0 0.0 xyz
      dof rx ry rz
   end
   begin
      id 29
      name RightFoot
      direction 0.000000 -0.258819 0.965926
      length 6.408245
      axis 15.0 0.0 0.0 xyz
      dof rx ry rz
   end
   begin
      id 30
      name RightToeBase
      direction 0.000000 0.000000 1.000000
      length 2.952750
      axis 0.0 0.0 0.0 xyz
      dof rx ry rz
   end
:hierarchy
   begin
      root Spine_dum LeftUpLeg_dum RightUpLeg_dum
      Spine_dum Spine
      LeftUpLeg_dum LeftUpLeg
      RightUpLeg_dum RightUpLeg
      Spine Spine_dum1 Spine_dum2 Spine_dum3
      Spine_dum1 Head
      Spine_dum2 LeftShoulder
      Spine_dum3 RightShoulder
      LeftShoulder LeftArm
      LeftArm LeftForeArm
      LeftForeArm LeftHand
      LeftHand LeftHand_dum1 LeftHand_dum2
      LeftHand_dum1 LeftHandThumb1
      RightShoulder RightArm
      RightArm RightForeArm
      RightForeArm RightHand
      RightHand RightHand_dum1 RightHand_dum2
      RightHand_dum1 RightHandThumb1
      LeftUpLeg LeftLeg
      LeftLeg LeftFoot
      LeftFoot LeftToeBase
      RightUpLeg RightLeg
      RightLeg RightFoot
      RightFoot RightToeBase
   end

# File created by Blade
# Date/Time:  Wed Apr 08 17:12:12 2015
# Frame Rate: 120.000 fps
#------------------------------------------------------
:FULLY-SPECIFIED
:DEGREES
439
root 2.785148 36.936439 6.947742 -26.307192 -6.351409 -11.345360
Spine 38.502186 -7.761166 -0.639942
Head 2.721809 22.668508 10.403415
LeftShoulder -4.555173 14.976852 15.951840
LeftArm 29.031132 25.835151 -75.432936
LeftForeArm 21.024734 -0.000000 37.234115
LeftHand -12.689320 -0.000000 -9.913957
LeftHandThumb1 -26.253704 0.000000 33.147579
RightShoulder -30.598079 -52.766425 17.237891
RightArm 52.894795 -26.095820 50.842016
RightForeArm 4.806466 -0.000000 12.477367
RightHand -3.698042 -0.000000 16.709657
RightHandThumb1 -24.326973 -0.000000 -32.862282
LeftUpLeg 27.542152 2.861931 11.694065
LeftLeg 13.078110 -0.000000 -0.000000
LeftFoot -9.326890 -16.211716 -13.860664
LeftToeBase 13.351068 -0.000000 -0.000000
RightUpLeg -66.234026 1.165602 22.707099
RightLeg 134.901897 -0.000000 -0.000000
RightFoot 17.376433 -0.829676 16.542367
RightToeBase -0.973049 -0.000000 0.000000
440
root 2.797563 36.931015 6.972569 -26.308185 -5.908942 -11.238212
Spine 38.325117 -8.015211 -0.731617
Head 2.693748 22.655640 10.367195
LeftShoulder -4.560169 14.997683 15.877779
LeftArm 29.054849 25.944633 -75.333551
LeftForeArm 21.302745 -0.000000 37.002962
LeftHand -12.747392 -0.000000 -10.060068
LeftHandThumb1 -26.253704 0.000000 33.147579
RightShoulder -30.505470 -52.737317 17.131622
RightArm 52.759128 -26.116829 51.225537
RightForeArm 4.488940 0.000000 12.442000
RightHand -3.823180 -0.000000 16.944862
RightHandThumb1 -24.326973 -0.000000 -32.862282
LeftUpLeg 27.417517 2.870176 11.672183
LeftLeg 13.155368 -0.000000 -0.000000
LeftFoot -9.178765 -16.945747 -14.484890
LeftToeBase 14.505791 -0.000000 -0.000000
RightUpLeg -66.321507 1.163286 22.635202
RightLeg 134.912851 -0.000000 -0.000000
RightFoot 17.389569 -1.011522 16.595581
RightToeBase -1.020789 -0.000000 0.000000
441
root 2.810290 36.924498 6.997584 -26.274517 -5.477744 -11.108371
Spine 38.109335 -8.228369 -0.840554
Head 2.653754 22.642976 10.353214
LeftShoulder -4.585981 15.005084 15.823370
LeftArm 29.098440 26.127992 -75.216708
LeftForeArm 21.551318 -0.000000 36.725122
LeftHand -12.804407 -0.000000 -10.104560
LeftHandThumb1 -26.253704 0.000000 33.147579
RightShoulder -30.622341 -52.770926 17.232147
RightArm 52.936425 -26.286038 51.068421
RightForeArm 4.694609 -0.000000 12.291125
RightHand -3.750073 -0.000000 17.052425
RightHandThumb1 -24.326973 -0.000000 -32.862282
LeftUpLeg 27.279686 2.895219 11.625124
LeftLeg 13.202929 -0.000000 -0.000000
LeftFoot -9.001451 -17.672257 -15.264983
LeftToeBase 15.779906 -0.000000 -0.000000
RightUpLeg -66.458449 1.181271 22.522858
RightLeg 134.943678 -0.000000 -0.000000
RightFoot 17.400285 -1.141531 16.537890
RightToeBase -1.026097 -0.000000 0.000000
442
root 2.824368 36.913453 7.011257 -26.079858 -4.954443 -11.002101
Spine 37.716156 -8.501305 -0.927514
Head 2.667043 22.600629 10.359974
LeftShoulder -4.585099 15.016190 15.745773
LeftArm 29.150212 26.304468 -75.091605
LeftForeArm 21.938546 -0.000000 36.414639
LeftHand -12.944590 -0.000000 -10.036333
LeftHandThumb1 -26.253704 0.000000 33.147579
RightShoulder -30.663243 -52.812384 17.277529
RightArm 52.958971 -26.412326 51.020055
RightForeArm 4.704568 0.000000 12.236626
RightHand -3.696140 0.000000 17.114920
RightHandThumb1 -24.326973 -0.000000 -32.862282
LeftUpLeg 26.895686 2.881187 11.545900
LeftLeg 13.347207 -0.000000 -0.000000
LeftFoot -8.883847 -18.365621 -15.836151
LeftToeBase 16.725126 -0.000000 -0.000000
RightUpLeg -66.815177 1.180679 22.347113
RightLeg 134.981759 -0.000000 -0.000000
RightFoot 17.444190 -1.262348 16.579618
RightToeBase -0.866030 -0.000000 0.000000
443
root 2.835494 36.901953 7.031438 -25.938078 -4.550302 -10.862598
Spine 37.362503 -8.630490 -0.987574
Head 2.691365 22.541055 10.345703
LeftShoulder -4.558567 15.049392 15.693728
LeftArm 29.174288 26.440560 -75.024319
LeftForeArm 22.327771 -0.000000 36.134998
LeftHand -13.078955 -0.000000 -9.928219
LeftHandThumb1 -26.253704 0.000000 33.147579
RightShoulder -30.724366 -52.860841 17.309125
RightArm 52.950624 -26.537204 50.963494
RightForeArm 4.519241 -0.000000 12.301543
RightHand -4.000356 0.000000 17.186897
RightHandThumb1 -24.326973 -0.000000 -32.862282
LeftUpLeg 26.643146 2.945580 11.464730
LeftLeg 13.425257 -0.000000 -0.000000
LeftFoot -8.735731 -18.941646 -16.275586
LeftToeBase 17.342655 -0.000000 -0.000000
RightUpLeg -67.097560 1.303708 22.191457
RightLeg 135.023620 -0.000000 -0.000000
RightFoot 17.521676 -1.332556 16.525716
RightToeBase -0.802151 -0.000000 0.000000
444
root 2.842932 36.896139 7.063973 -25.967974 -4.237907 -10.742178
Spine 37.200331 -8.669578 -1.000846
Head 2.677288 22.495883 10.283783
LeftShoulder -4.540329 15.052438 15.655205
LeftArm 29.203702 26.647164 -74.934545
LeftForeArm 22.690752 -0.000000 35.850076
LeftHand -13.191310 0.000000 -9.741621
LeftHandThumb1 -26.253704 0.000000 33.147579
RightShoulder -30.773112 -52.898203 17.290030
RightArm 52.947672 -26.622159 50.939623
RightForeArm 4.205507 0.000000 12.260036
RightHand -4.062253 -0.000000 17.402374
RightHandThumb1 -24.326973 -0.000000 -32.862282
LeftUpLeg 26.653501 2.999977 11.413698
LeftLeg 13.404760 -0.000000 -0.000000
LeftFoot -8.590654 -19.363427 -16.516632
LeftToeBase 17.800388 -0.000000 -0.000000
RightUpLeg -67.178322 1.433438 22.067349
RightLeg 135.053670 -0.000000 -0.000000
RightFoot 17.645645 -1.291940 16.549875
RightToeBase -0.678698 -0.000000 0.000000
445
root 2.849774 36.890271 7.105180 -26.039126 -4.129363 -10.582067
Spine 37.055744 -8.512731 -0.949995
Head 2.688964 22.427728 10.200569
LeftShoulder -4.531629 15.083127 15.596718
LeftArm 29.230624 26.842367 -74.861911
LeftForeArm 23.024604 0.000000 35.590592
LeftHand -13.337410 -0.000000 -9.572270
LeftHandThumb1 -26.253704 0.000000 33.147579
RightShoulder -30.852367 -52.966034 17.286927
RightArm 52.964888 -26.781514 50.698328
RightForeArm 3.950692 -0.000000 12.330951
RightHand -3.982706 -0.000000 17.503455
RightHandThumb1 -24.326973 -0.000000 -32.862282
LeftUpLeg 26.815927 3.178726 11.363403
LeftLeg 13.308562 -0.000000 -0.000000
LeftFoot -8.467783 -19.617895 -16.584311
LeftToeBase 17.966618 -0.000000 -0.000000
RightUpLeg -67.160352 1.736249 21.996302
RightLeg 135.088155 -0.000000 -0.000000
RightFoot 17.763147 -1.247368 16.637183
RightToeBase -0.777446 -0.000000 0.000000
446
root 2.855987 36.884660 7.135966 -26.122413 -3.831438 -10.497336
Spine 36.982071 -8.525096 -0.929785
Head 2.644797 22.385223 10.138396
LeftShoulder -4.516076 15.064661 15.586621
LeftArm 29.253852 27.066924 -74.786193
LeftForeArm 23.312193 -0.000000 35.336066
LeftHand -13.482503 -0.000000 -9.345994
LeftHandThumb1 -26.253704 0.000000 33.147579
RightShoulder -30.896652 -53.017931 17.279856
RightArm 52.961544 -26.855869 50.532988
RightForeArm 3.654479 -0.000000 12.375698
RightHand -4.030813 -0.000000 17.640626
RightHandThumb1 -24.326973 -0.000000 -32.862282
LeftUpLeg 26.860098 3.033682 11.203365
LeftLeg 13.327506 -0.000000 -0.000000
LeftFoot -8.445908 -19.700186 -16.580660
LeftToeBase 17.941243 -0.000000 -0.000000
RightUpLeg -67.175387 1.833073 21.910021
RightLeg 135.109923 -0.000000 -0.000000
RightFoot 17.819831 -1.224778 16.689560
RightToeBase -0.779500 -0.000000 0.000000
447
root 2.859479 36.879828 7.163864 -26.204315 -3.478021 -10.495161
Spine 36.930740 -8.631129 -0.872572
Head 2.583499 22.358943 10.072842
LeftShoulder -4.517835 15.062848 15.581371
LeftArm 29.262002 27.234705 -74.762481
LeftForeArm 23.519283 -0.000000 35.090882
LeftHand -13.571669 -0.000000 -9.150357
LeftHandThumb1 -26.253704 0.000000 33.147579
RightShoulder -30.900265 -53.069655 17.254379
RightArm 52.922710 -26.866472 50.375944
RightForeArm 3.352952 0.000000 12.408686
RightHand -4.051358 -0.000000 17.908737
RightHandThumb1 -24.326973 -0.000000 -32.862282
LeftUpLeg 26.848404 2.788178 11.080881
LeftLeg 13.414812 -0.000000 -0.000000
LeftFoot -8.508234 -19.761149 -16.526673
LeftToeBase 18.005296 -0.000000 -0.000000
RightUpLeg -67.197304 1.845236 21.874590
RightLeg 135.121249 -0.000000 -0.000000
RightFoot 17.830734 -1.272097 16.774153
RightToeBase -0.691500 -0.000000 0.000000
448
root 2.862677 36.876601 7.193722 -26.325104 -3.184131 -10.504622
Spine 36.927772 -8.690723 -0.772872
Head 2.519772 22.349955 10.000361
LeftShoulder -4.534751 15.080875 15.554055
LeftArm 29.293657 27.359995 -74.739725
LeftForeArm 23.625965 -0.000000 34.859538
LeftHand -13.662160 -0.000000 -9.144078
LeftHandThumb1 -26.253704 0.000000 33.147579
RightShoulder -30.920906 -53.097517 17.231322
RightArm 52.921475 -26.899587 50.132937
RightForeArm 3.102992 0.000000 12.381993
RightHand -4.030718 -0.000000 18.048161
RightHandThumb1 -24.326973 -0.000000 -32.862282
LeftUpLeg 26.897941 2.559264 10.983054
LeftLeg 13.494471 -0.000000 -0.000000
LeftFoot -8.566043 -19.770048 -16.470040
LeftToeBase 18.001490 -0.000000 -0.000000
RightUpLeg -67.157330 1.888205 21.859820
RightLeg 135.130074 -0.000000 -0.000000
RightFoot 17.803888 -1.385411 16.856524
RightToeBase -0.667417 -0.000000 0.000000
